<mxfile host="app.diagrams.net" modified="2024-03-27T02:18:38.697Z" agent="Mozilla/5.0 (Windows NT 10.0; Win64; x64) AppleWebKit/537.36 (KHTML, like Gecko) Chrome/123.0.0.0 Safari/537.36" etag="c1MyrCpUcA87bOVsGGfR" version="24.1.0" type="device">
  <diagram id="Mgen06pPq9RJdsrTZpsd" name="Page-1">
    <mxGraphModel dx="1050" dy="565" grid="0" gridSize="10" guides="1" tooltips="1" connect="1" arrows="1" fold="1" page="0" pageScale="1" pageWidth="1100" pageHeight="850" math="0" shadow="0">
      <root>
        <mxCell id="0" />
        <mxCell id="1" parent="0" />
        <mxCell id="T6DNwft9aMQeRnURHnW7-5" value="System" style="swimlane;whiteSpace=wrap;html=1;fillColor=#d0cee2;strokeColor=#56517e;" vertex="1" parent="1">
          <mxGeometry x="10" y="40" width="290" height="780" as="geometry" />
        </mxCell>
        <mxCell id="T6DNwft9aMQeRnURHnW7-91" style="edgeStyle=orthogonalEdgeStyle;rounded=0;orthogonalLoop=1;jettySize=auto;html=1;exitX=0.5;exitY=1;exitDx=0;exitDy=0;entryX=0.5;entryY=0;entryDx=0;entryDy=0;" edge="1" parent="T6DNwft9aMQeRnURHnW7-5" source="T6DNwft9aMQeRnURHnW7-11" target="T6DNwft9aMQeRnURHnW7-12">
          <mxGeometry relative="1" as="geometry" />
        </mxCell>
        <mxCell id="T6DNwft9aMQeRnURHnW7-11" value="&lt;b&gt;Start&lt;/b&gt;" style="ellipse;whiteSpace=wrap;html=1;fillColor=#fff2cc;strokeColor=#d6b656;" vertex="1" parent="T6DNwft9aMQeRnURHnW7-5">
          <mxGeometry x="90" y="30" width="80" height="30" as="geometry" />
        </mxCell>
        <mxCell id="T6DNwft9aMQeRnURHnW7-52" style="edgeStyle=orthogonalEdgeStyle;rounded=0;orthogonalLoop=1;jettySize=auto;html=1;" edge="1" parent="T6DNwft9aMQeRnURHnW7-5" source="T6DNwft9aMQeRnURHnW7-12" target="T6DNwft9aMQeRnURHnW7-51">
          <mxGeometry relative="1" as="geometry">
            <mxPoint x="20" y="440" as="targetPoint" />
            <Array as="points">
              <mxPoint x="50" y="100" />
              <mxPoint x="50" y="420" />
            </Array>
          </mxGeometry>
        </mxCell>
        <mxCell id="T6DNwft9aMQeRnURHnW7-53" value="&lt;b&gt;NO&lt;/b&gt;" style="edgeLabel;html=1;align=center;verticalAlign=middle;resizable=0;points=[];" vertex="1" connectable="0" parent="T6DNwft9aMQeRnURHnW7-52">
          <mxGeometry x="-0.6565" relative="1" as="geometry">
            <mxPoint as="offset" />
          </mxGeometry>
        </mxCell>
        <mxCell id="T6DNwft9aMQeRnURHnW7-12" value="&lt;b&gt;Is&amp;nbsp;&lt;/b&gt;&lt;div&gt;&lt;b&gt;Contestant&lt;/b&gt;&lt;/div&gt;&lt;div&gt;&lt;b&gt;?&lt;/b&gt;&lt;/div&gt;" style="rhombus;whiteSpace=wrap;html=1;fillColor=#76608a;strokeColor=#432D57;fontColor=#ffffff;" vertex="1" parent="T6DNwft9aMQeRnURHnW7-5">
          <mxGeometry x="85" y="80" width="100" height="50" as="geometry" />
        </mxCell>
        <mxCell id="T6DNwft9aMQeRnURHnW7-23" value="&lt;div&gt;&lt;b style=&quot;background-color: initial;&quot;&gt;Set&amp;nbsp;&lt;/b&gt;&lt;/div&gt;&lt;div&gt;&lt;b style=&quot;background-color: initial;&quot;&gt;Contest&lt;/b&gt;&lt;br&gt;&lt;/div&gt;&lt;div&gt;&lt;b&gt;?&lt;/b&gt;&lt;/div&gt;" style="rhombus;whiteSpace=wrap;html=1;fillColor=#76608a;strokeColor=#432D57;fontColor=#ffffff;" vertex="1" parent="T6DNwft9aMQeRnURHnW7-5">
          <mxGeometry x="85" y="140" width="100" height="80" as="geometry" />
        </mxCell>
        <mxCell id="T6DNwft9aMQeRnURHnW7-27" value="" style="endArrow=none;html=1;rounded=0;exitX=1;exitY=0.5;exitDx=0;exitDy=0;" edge="1" parent="T6DNwft9aMQeRnURHnW7-5" source="T6DNwft9aMQeRnURHnW7-23">
          <mxGeometry width="50" height="50" relative="1" as="geometry">
            <mxPoint x="190" y="180" as="sourcePoint" />
            <mxPoint x="320" y="110" as="targetPoint" />
          </mxGeometry>
        </mxCell>
        <mxCell id="T6DNwft9aMQeRnURHnW7-28" value="&lt;b&gt;NO&lt;/b&gt;" style="edgeLabel;html=1;align=center;verticalAlign=middle;resizable=0;points=[];" vertex="1" connectable="0" parent="T6DNwft9aMQeRnURHnW7-27">
          <mxGeometry x="-0.0643" y="-3" relative="1" as="geometry">
            <mxPoint as="offset" />
          </mxGeometry>
        </mxCell>
        <mxCell id="T6DNwft9aMQeRnURHnW7-29" value="&lt;div&gt;&lt;b&gt;Update information&lt;/b&gt;&lt;/div&gt;&lt;div&gt;&lt;b&gt;?&lt;/b&gt;&lt;/div&gt;" style="rhombus;whiteSpace=wrap;html=1;fillColor=#76608a;strokeColor=#432D57;fontColor=#ffffff;" vertex="1" parent="T6DNwft9aMQeRnURHnW7-5">
          <mxGeometry x="80" y="240" width="100" height="80" as="geometry" />
        </mxCell>
        <mxCell id="T6DNwft9aMQeRnURHnW7-51" value="&lt;div&gt;&lt;b style=&quot;background-color: initial;&quot;&gt;Is Admin&lt;/b&gt;&lt;br&gt;&lt;/div&gt;&lt;div&gt;&lt;b&gt;?&lt;/b&gt;&lt;/div&gt;" style="rhombus;whiteSpace=wrap;html=1;fillColor=#76608a;strokeColor=#432D57;fontColor=#ffffff;" vertex="1" parent="T6DNwft9aMQeRnURHnW7-5">
          <mxGeometry x="110" y="390" width="100" height="60" as="geometry" />
        </mxCell>
        <mxCell id="T6DNwft9aMQeRnURHnW7-104" style="edgeStyle=orthogonalEdgeStyle;rounded=0;orthogonalLoop=1;jettySize=auto;html=1;entryX=-0.005;entryY=0.7;entryDx=0;entryDy=0;entryPerimeter=0;" edge="1" parent="T6DNwft9aMQeRnURHnW7-5" source="T6DNwft9aMQeRnURHnW7-57" target="T6DNwft9aMQeRnURHnW7-77">
          <mxGeometry relative="1" as="geometry">
            <mxPoint x="30" y="760" as="targetPoint" />
            <Array as="points">
              <mxPoint x="31" y="530" />
              <mxPoint x="31" y="745" />
            </Array>
          </mxGeometry>
        </mxCell>
        <mxCell id="T6DNwft9aMQeRnURHnW7-105" value="&lt;b&gt;NO&lt;/b&gt;" style="edgeLabel;html=1;align=center;verticalAlign=middle;resizable=0;points=[];" vertex="1" connectable="0" parent="T6DNwft9aMQeRnURHnW7-104">
          <mxGeometry x="-0.8352" y="5" relative="1" as="geometry">
            <mxPoint y="-5" as="offset" />
          </mxGeometry>
        </mxCell>
        <mxCell id="T6DNwft9aMQeRnURHnW7-57" value="&lt;div&gt;&lt;b&gt;Pending Approval?&lt;/b&gt;&lt;/div&gt;" style="rhombus;whiteSpace=wrap;html=1;fillColor=#76608a;strokeColor=#432D57;fontColor=#ffffff;" vertex="1" parent="T6DNwft9aMQeRnURHnW7-5">
          <mxGeometry x="85" y="500" width="110" height="60" as="geometry" />
        </mxCell>
        <mxCell id="T6DNwft9aMQeRnURHnW7-101" style="edgeStyle=orthogonalEdgeStyle;rounded=0;orthogonalLoop=1;jettySize=auto;html=1;entryX=0;entryY=0.5;entryDx=0;entryDy=0;" edge="1" parent="T6DNwft9aMQeRnURHnW7-5" source="T6DNwft9aMQeRnURHnW7-72" target="T6DNwft9aMQeRnURHnW7-77">
          <mxGeometry relative="1" as="geometry">
            <mxPoint x="40" y="760" as="targetPoint" />
            <Array as="points">
              <mxPoint x="40" y="635" />
              <mxPoint x="40" y="735" />
            </Array>
          </mxGeometry>
        </mxCell>
        <mxCell id="T6DNwft9aMQeRnURHnW7-102" value="&lt;b&gt;NO&lt;/b&gt;" style="edgeLabel;html=1;align=center;verticalAlign=middle;resizable=0;points=[];" vertex="1" connectable="0" parent="T6DNwft9aMQeRnURHnW7-101">
          <mxGeometry x="-0.1651" relative="1" as="geometry">
            <mxPoint as="offset" />
          </mxGeometry>
        </mxCell>
        <mxCell id="T6DNwft9aMQeRnURHnW7-72" value="&lt;div&gt;&lt;b style=&quot;background-color: initial;&quot;&gt;Any&lt;/b&gt;&lt;/div&gt;&lt;div&gt;&lt;b style=&quot;background-color: initial;&quot;&gt;user violets&lt;/b&gt;&lt;br&gt;&lt;/div&gt;&lt;div&gt;&lt;b&gt;community&lt;/b&gt;&lt;/div&gt;&lt;div&gt;&lt;b&gt;guideline&lt;/b&gt;&lt;/div&gt;&lt;div&gt;&lt;b&gt;?&lt;/b&gt;&lt;/div&gt;" style="rhombus;whiteSpace=wrap;html=1;fillColor=#76608a;strokeColor=#432D57;fontColor=#ffffff;" vertex="1" parent="T6DNwft9aMQeRnURHnW7-5">
          <mxGeometry x="67.5" y="590" width="135" height="90" as="geometry" />
        </mxCell>
        <mxCell id="T6DNwft9aMQeRnURHnW7-77" value="&lt;b&gt;End&lt;/b&gt;" style="ellipse;whiteSpace=wrap;html=1;fillColor=#fff2cc;strokeColor=#d6b656;" vertex="1" parent="T6DNwft9aMQeRnURHnW7-5">
          <mxGeometry x="90" y="710" width="85" height="50" as="geometry" />
        </mxCell>
        <mxCell id="T6DNwft9aMQeRnURHnW7-92" style="edgeStyle=orthogonalEdgeStyle;rounded=0;orthogonalLoop=1;jettySize=auto;html=1;entryX=0.005;entryY=0.332;entryDx=0;entryDy=0;entryPerimeter=0;" edge="1" parent="T6DNwft9aMQeRnURHnW7-5" source="T6DNwft9aMQeRnURHnW7-51" target="T6DNwft9aMQeRnURHnW7-77">
          <mxGeometry relative="1" as="geometry">
            <Array as="points">
              <mxPoint x="10" y="460" />
              <mxPoint x="10" y="727" />
            </Array>
          </mxGeometry>
        </mxCell>
        <mxCell id="T6DNwft9aMQeRnURHnW7-93" value="&lt;b&gt;NO&lt;/b&gt;" style="edgeLabel;html=1;align=center;verticalAlign=middle;resizable=0;points=[];" vertex="1" connectable="0" parent="T6DNwft9aMQeRnURHnW7-92">
          <mxGeometry x="0.2896" y="3" relative="1" as="geometry">
            <mxPoint as="offset" />
          </mxGeometry>
        </mxCell>
        <mxCell id="T6DNwft9aMQeRnURHnW7-6" value="Contestant" style="swimlane;whiteSpace=wrap;html=1;fillColor=#d0cee2;strokeColor=#56517e;" vertex="1" parent="1">
          <mxGeometry x="300" y="40" width="230" height="780" as="geometry" />
        </mxCell>
        <mxCell id="T6DNwft9aMQeRnURHnW7-19" value="" style="endArrow=none;html=1;rounded=0;" edge="1" parent="T6DNwft9aMQeRnURHnW7-6">
          <mxGeometry width="50" height="50" relative="1" as="geometry">
            <mxPoint x="30" y="180" as="sourcePoint" />
            <mxPoint x="30" y="100" as="targetPoint" />
          </mxGeometry>
        </mxCell>
        <mxCell id="T6DNwft9aMQeRnURHnW7-20" value="" style="endArrow=classic;html=1;rounded=0;entryX=0;entryY=0.75;entryDx=0;entryDy=0;" edge="1" parent="T6DNwft9aMQeRnURHnW7-6">
          <mxGeometry width="50" height="50" relative="1" as="geometry">
            <mxPoint x="30" y="130" as="sourcePoint" />
            <mxPoint x="170" y="130" as="targetPoint" />
          </mxGeometry>
        </mxCell>
        <mxCell id="T6DNwft9aMQeRnURHnW7-21" value="" style="endArrow=classic;html=1;rounded=0;entryX=0;entryY=0.5;entryDx=0;entryDy=0;" edge="1" parent="T6DNwft9aMQeRnURHnW7-6" target="T6DNwft9aMQeRnURHnW7-15">
          <mxGeometry width="50" height="50" relative="1" as="geometry">
            <mxPoint x="30" y="180" as="sourcePoint" />
            <mxPoint x="80" y="130" as="targetPoint" />
          </mxGeometry>
        </mxCell>
        <mxCell id="T6DNwft9aMQeRnURHnW7-34" value="" style="ellipse;whiteSpace=wrap;html=1;aspect=fixed;fillColor=#f8cecc;strokeColor=#b85450;" vertex="1" parent="T6DNwft9aMQeRnURHnW7-6">
          <mxGeometry x="110" y="360" width="10" height="10" as="geometry" />
        </mxCell>
        <mxCell id="T6DNwft9aMQeRnURHnW7-47" value="" style="endArrow=classic;html=1;rounded=0;entryX=0.32;entryY=0.045;entryDx=0;entryDy=0;entryPerimeter=0;" edge="1" parent="T6DNwft9aMQeRnURHnW7-6" target="T6DNwft9aMQeRnURHnW7-46">
          <mxGeometry width="50" height="50" relative="1" as="geometry">
            <mxPoint x="200" y="300" as="sourcePoint" />
            <mxPoint x="250" y="250" as="targetPoint" />
          </mxGeometry>
        </mxCell>
        <mxCell id="T6DNwft9aMQeRnURHnW7-7" value="Problem-Setter" style="swimlane;whiteSpace=wrap;html=1;fillColor=#d0cee2;strokeColor=#56517e;" vertex="1" parent="1">
          <mxGeometry x="530" y="40" width="170" height="780" as="geometry" />
        </mxCell>
        <mxCell id="T6DNwft9aMQeRnURHnW7-45" style="edgeStyle=orthogonalEdgeStyle;rounded=0;orthogonalLoop=1;jettySize=auto;html=1;entryX=0;entryY=0.5;entryDx=0;entryDy=0;" edge="1" parent="T6DNwft9aMQeRnURHnW7-7" source="T6DNwft9aMQeRnURHnW7-14" target="T6DNwft9aMQeRnURHnW7-39">
          <mxGeometry relative="1" as="geometry" />
        </mxCell>
        <mxCell id="T6DNwft9aMQeRnURHnW7-14" value="&lt;b&gt;Team&lt;/b&gt;" style="rounded=0;whiteSpace=wrap;html=1;fillColor=#d5e8d4;strokeColor=#82b366;" vertex="1" parent="T6DNwft9aMQeRnURHnW7-7">
          <mxGeometry x="-60" y="110" width="120" height="40" as="geometry" />
        </mxCell>
        <mxCell id="T6DNwft9aMQeRnURHnW7-44" style="edgeStyle=orthogonalEdgeStyle;rounded=0;orthogonalLoop=1;jettySize=auto;html=1;entryX=1;entryY=0;entryDx=0;entryDy=0;" edge="1" parent="T6DNwft9aMQeRnURHnW7-7" source="T6DNwft9aMQeRnURHnW7-13" target="T6DNwft9aMQeRnURHnW7-39">
          <mxGeometry relative="1" as="geometry" />
        </mxCell>
        <mxCell id="T6DNwft9aMQeRnURHnW7-13" value="&lt;b&gt;Profile overview&lt;/b&gt;" style="rounded=0;whiteSpace=wrap;html=1;fillColor=#d5e8d4;strokeColor=#82b366;" vertex="1" parent="T6DNwft9aMQeRnURHnW7-7">
          <mxGeometry x="-60" y="60" width="120" height="40" as="geometry" />
        </mxCell>
        <mxCell id="T6DNwft9aMQeRnURHnW7-15" value="&lt;b&gt;Setting&lt;/b&gt;" style="rounded=0;whiteSpace=wrap;html=1;fillColor=#d5e8d4;strokeColor=#82b366;" vertex="1" parent="T6DNwft9aMQeRnURHnW7-7">
          <mxGeometry x="-60" y="160" width="120" height="40" as="geometry" />
        </mxCell>
        <mxCell id="T6DNwft9aMQeRnURHnW7-94" style="edgeStyle=orthogonalEdgeStyle;rounded=0;orthogonalLoop=1;jettySize=auto;html=1;entryX=0.5;entryY=1;entryDx=0;entryDy=0;" edge="1" parent="T6DNwft9aMQeRnURHnW7-7" source="T6DNwft9aMQeRnURHnW7-24" target="T6DNwft9aMQeRnURHnW7-39">
          <mxGeometry relative="1" as="geometry" />
        </mxCell>
        <mxCell id="T6DNwft9aMQeRnURHnW7-24" value="&lt;b&gt;Problem setting history&lt;/b&gt;" style="rounded=0;whiteSpace=wrap;html=1;fillColor=#d5e8d4;strokeColor=#82b366;" vertex="1" parent="T6DNwft9aMQeRnURHnW7-7">
          <mxGeometry x="60" y="210" width="90" height="40" as="geometry" />
        </mxCell>
        <mxCell id="T6DNwft9aMQeRnURHnW7-30" value="&lt;b&gt;Updated&amp;nbsp;&lt;/b&gt;&lt;div&gt;&lt;b&gt;information&lt;/b&gt;&lt;/div&gt;" style="shape=parallelogram;perimeter=parallelogramPerimeter;whiteSpace=wrap;html=1;fixedSize=1;fillColor=#dae8fc;strokeColor=#6c8ebf;" vertex="1" parent="T6DNwft9aMQeRnURHnW7-7">
          <mxGeometry x="-60" y="260" width="110" height="40" as="geometry" />
        </mxCell>
        <mxCell id="T6DNwft9aMQeRnURHnW7-39" value="" style="ellipse;whiteSpace=wrap;html=1;aspect=fixed;fillColor=#f8cecc;strokeColor=#b85450;" vertex="1" parent="T6DNwft9aMQeRnURHnW7-7">
          <mxGeometry x="140" y="125" width="10" height="10" as="geometry" />
        </mxCell>
        <mxCell id="T6DNwft9aMQeRnURHnW7-46" value="&lt;b&gt;Successfully&lt;/b&gt;&lt;div&gt;&lt;b&gt;updated&lt;/b&gt;&lt;/div&gt;" style="rounded=0;whiteSpace=wrap;html=1;fillColor=#d5e8d4;strokeColor=#82b366;" vertex="1" parent="T6DNwft9aMQeRnURHnW7-7">
          <mxGeometry x="-60" y="320" width="100" height="40" as="geometry" />
        </mxCell>
        <mxCell id="T6DNwft9aMQeRnURHnW7-9" value="Admin" style="swimlane;whiteSpace=wrap;html=1;fillColor=#d0cee2;strokeColor=#56517e;" vertex="1" parent="1">
          <mxGeometry x="700" y="40" width="190" height="780" as="geometry" />
        </mxCell>
        <mxCell id="T6DNwft9aMQeRnURHnW7-54" value="&lt;b&gt;Admin dashboard&lt;/b&gt;" style="rounded=0;whiteSpace=wrap;html=1;fillColor=#d5e8d4;strokeColor=#82b366;" vertex="1" parent="T6DNwft9aMQeRnURHnW7-9">
          <mxGeometry x="60" y="70" width="120" height="40" as="geometry" />
        </mxCell>
        <mxCell id="T6DNwft9aMQeRnURHnW7-60" style="edgeStyle=orthogonalEdgeStyle;rounded=0;orthogonalLoop=1;jettySize=auto;html=1;entryX=0.5;entryY=0;entryDx=0;entryDy=0;" edge="1" parent="T6DNwft9aMQeRnURHnW7-9" source="T6DNwft9aMQeRnURHnW7-58" target="T6DNwft9aMQeRnURHnW7-59">
          <mxGeometry relative="1" as="geometry" />
        </mxCell>
        <mxCell id="T6DNwft9aMQeRnURHnW7-58" value="&lt;b&gt;Check activity&lt;/b&gt;" style="rounded=0;whiteSpace=wrap;html=1;fillColor=#d5e8d4;strokeColor=#82b366;" vertex="1" parent="T6DNwft9aMQeRnURHnW7-9">
          <mxGeometry x="50" y="500" width="100" height="40" as="geometry" />
        </mxCell>
        <mxCell id="T6DNwft9aMQeRnURHnW7-59" value="&lt;b&gt;All Okay?&lt;/b&gt;" style="rhombus;whiteSpace=wrap;html=1;fillColor=#76608a;strokeColor=#432D57;fontColor=#ffffff;" vertex="1" parent="T6DNwft9aMQeRnURHnW7-9">
          <mxGeometry x="50" y="560" width="100" height="80" as="geometry" />
        </mxCell>
        <mxCell id="T6DNwft9aMQeRnURHnW7-10" value="Email" style="swimlane;whiteSpace=wrap;html=1;fillColor=#d0cee2;strokeColor=#56517e;" vertex="1" parent="1">
          <mxGeometry x="890" y="40" width="200" height="780" as="geometry" />
        </mxCell>
        <mxCell id="T6DNwft9aMQeRnURHnW7-63" value="&lt;b&gt;Send approval&amp;nbsp;&lt;/b&gt;&lt;div&gt;&lt;b&gt;email&lt;/b&gt;&lt;/div&gt;" style="shape=parallelogram;perimeter=parallelogramPerimeter;whiteSpace=wrap;html=1;fixedSize=1;fillColor=#dae8fc;strokeColor=#6c8ebf;" vertex="1" parent="T6DNwft9aMQeRnURHnW7-10">
          <mxGeometry x="20" y="385" width="130" height="40" as="geometry" />
        </mxCell>
        <mxCell id="T6DNwft9aMQeRnURHnW7-82" style="edgeStyle=orthogonalEdgeStyle;rounded=0;orthogonalLoop=1;jettySize=auto;html=1;entryX=0.5;entryY=1;entryDx=0;entryDy=0;" edge="1" parent="T6DNwft9aMQeRnURHnW7-10" source="T6DNwft9aMQeRnURHnW7-66" target="T6DNwft9aMQeRnURHnW7-78">
          <mxGeometry relative="1" as="geometry" />
        </mxCell>
        <mxCell id="T6DNwft9aMQeRnURHnW7-66" value="&lt;b&gt;Send rejection&amp;nbsp;&lt;/b&gt;&lt;div&gt;&lt;b&gt;email&lt;/b&gt;&lt;/div&gt;" style="shape=parallelogram;perimeter=parallelogramPerimeter;whiteSpace=wrap;html=1;fixedSize=1;fillColor=#dae8fc;strokeColor=#6c8ebf;" vertex="1" parent="T6DNwft9aMQeRnURHnW7-10">
          <mxGeometry x="30" y="620" width="140" height="40" as="geometry" />
        </mxCell>
        <mxCell id="T6DNwft9aMQeRnURHnW7-73" value="&lt;b&gt;Send warning&lt;/b&gt;&lt;div&gt;&lt;b&gt;email&lt;/b&gt;&lt;/div&gt;" style="shape=parallelogram;perimeter=parallelogramPerimeter;whiteSpace=wrap;html=1;fixedSize=1;fillColor=#dae8fc;strokeColor=#6c8ebf;" vertex="1" parent="T6DNwft9aMQeRnURHnW7-10">
          <mxGeometry x="10" y="680" width="140" height="40" as="geometry" />
        </mxCell>
        <mxCell id="T6DNwft9aMQeRnURHnW7-78" value="" style="ellipse;whiteSpace=wrap;html=1;aspect=fixed;fillColor=#f8cecc;strokeColor=#b85450;" vertex="1" parent="T6DNwft9aMQeRnURHnW7-10">
          <mxGeometry x="160" y="470" width="10" height="10" as="geometry" />
        </mxCell>
        <mxCell id="T6DNwft9aMQeRnURHnW7-80" style="edgeStyle=orthogonalEdgeStyle;rounded=0;orthogonalLoop=1;jettySize=auto;html=1;exitX=1;exitY=0.75;exitDx=0;exitDy=0;entryX=1;entryY=0;entryDx=0;entryDy=0;" edge="1" parent="T6DNwft9aMQeRnURHnW7-10" source="T6DNwft9aMQeRnURHnW7-63" target="T6DNwft9aMQeRnURHnW7-78">
          <mxGeometry relative="1" as="geometry">
            <Array as="points">
              <mxPoint x="169" y="413" />
            </Array>
          </mxGeometry>
        </mxCell>
        <mxCell id="T6DNwft9aMQeRnURHnW7-18" style="edgeStyle=orthogonalEdgeStyle;rounded=0;orthogonalLoop=1;jettySize=auto;html=1;exitX=1;exitY=0.5;exitDx=0;exitDy=0;entryX=0;entryY=0.5;entryDx=0;entryDy=0;" edge="1" parent="1" source="T6DNwft9aMQeRnURHnW7-12" target="T6DNwft9aMQeRnURHnW7-13">
          <mxGeometry relative="1" as="geometry">
            <Array as="points">
              <mxPoint x="330" y="145" />
              <mxPoint x="330" y="120" />
            </Array>
          </mxGeometry>
        </mxCell>
        <mxCell id="T6DNwft9aMQeRnURHnW7-22" value="&lt;b&gt;YES&lt;/b&gt;" style="edgeLabel;html=1;align=center;verticalAlign=middle;resizable=0;points=[];" vertex="1" connectable="0" parent="T6DNwft9aMQeRnURHnW7-18">
          <mxGeometry x="-0.6637" y="2" relative="1" as="geometry">
            <mxPoint as="offset" />
          </mxGeometry>
        </mxCell>
        <mxCell id="T6DNwft9aMQeRnURHnW7-25" style="edgeStyle=orthogonalEdgeStyle;rounded=0;orthogonalLoop=1;jettySize=auto;html=1;entryX=0;entryY=0.5;entryDx=0;entryDy=0;" edge="1" parent="1" source="T6DNwft9aMQeRnURHnW7-23" target="T6DNwft9aMQeRnURHnW7-24">
          <mxGeometry relative="1" as="geometry">
            <Array as="points">
              <mxPoint x="145" y="270" />
            </Array>
          </mxGeometry>
        </mxCell>
        <mxCell id="T6DNwft9aMQeRnURHnW7-26" value="&lt;b&gt;YES&lt;/b&gt;" style="edgeLabel;html=1;align=center;verticalAlign=middle;resizable=0;points=[];" vertex="1" connectable="0" parent="T6DNwft9aMQeRnURHnW7-25">
          <mxGeometry x="0.1981" y="1" relative="1" as="geometry">
            <mxPoint as="offset" />
          </mxGeometry>
        </mxCell>
        <mxCell id="T6DNwft9aMQeRnURHnW7-31" style="edgeStyle=orthogonalEdgeStyle;rounded=0;orthogonalLoop=1;jettySize=auto;html=1;exitX=1;exitY=0.5;exitDx=0;exitDy=0;entryX=0;entryY=0.5;entryDx=0;entryDy=0;" edge="1" parent="1" source="T6DNwft9aMQeRnURHnW7-29" target="T6DNwft9aMQeRnURHnW7-30">
          <mxGeometry relative="1" as="geometry" />
        </mxCell>
        <mxCell id="T6DNwft9aMQeRnURHnW7-33" value="&lt;b&gt;YES&lt;/b&gt;" style="edgeLabel;html=1;align=center;verticalAlign=middle;resizable=0;points=[];" vertex="1" connectable="0" parent="T6DNwft9aMQeRnURHnW7-31">
          <mxGeometry x="-0.6372" y="-3" relative="1" as="geometry">
            <mxPoint y="-3" as="offset" />
          </mxGeometry>
        </mxCell>
        <mxCell id="T6DNwft9aMQeRnURHnW7-32" style="edgeStyle=orthogonalEdgeStyle;rounded=0;orthogonalLoop=1;jettySize=auto;html=1;exitX=0;exitY=0.75;exitDx=0;exitDy=0;entryX=0.5;entryY=1;entryDx=0;entryDy=0;" edge="1" parent="1" source="T6DNwft9aMQeRnURHnW7-15" target="T6DNwft9aMQeRnURHnW7-29">
          <mxGeometry relative="1" as="geometry" />
        </mxCell>
        <mxCell id="T6DNwft9aMQeRnURHnW7-35" style="edgeStyle=orthogonalEdgeStyle;rounded=0;orthogonalLoop=1;jettySize=auto;html=1;entryX=0;entryY=0.5;entryDx=0;entryDy=0;" edge="1" parent="1" source="T6DNwft9aMQeRnURHnW7-29" target="T6DNwft9aMQeRnURHnW7-34">
          <mxGeometry relative="1" as="geometry">
            <mxPoint x="40" y="400" as="targetPoint" />
            <Array as="points">
              <mxPoint x="40" y="320" />
              <mxPoint x="40" y="405" />
            </Array>
          </mxGeometry>
        </mxCell>
        <mxCell id="T6DNwft9aMQeRnURHnW7-36" value="&lt;b&gt;NO&lt;/b&gt;" style="edgeLabel;html=1;align=center;verticalAlign=middle;resizable=0;points=[];" vertex="1" connectable="0" parent="T6DNwft9aMQeRnURHnW7-35">
          <mxGeometry x="-0.1065" y="-1" relative="1" as="geometry">
            <mxPoint as="offset" />
          </mxGeometry>
        </mxCell>
        <mxCell id="T6DNwft9aMQeRnURHnW7-48" style="edgeStyle=orthogonalEdgeStyle;rounded=0;orthogonalLoop=1;jettySize=auto;html=1;entryX=0.5;entryY=0;entryDx=0;entryDy=0;" edge="1" parent="1" source="T6DNwft9aMQeRnURHnW7-46" target="T6DNwft9aMQeRnURHnW7-34">
          <mxGeometry relative="1" as="geometry" />
        </mxCell>
        <mxCell id="T6DNwft9aMQeRnURHnW7-49" style="edgeStyle=orthogonalEdgeStyle;rounded=0;orthogonalLoop=1;jettySize=auto;html=1;entryX=0.5;entryY=1;entryDx=0;entryDy=0;" edge="1" parent="1" source="T6DNwft9aMQeRnURHnW7-39" target="T6DNwft9aMQeRnURHnW7-34">
          <mxGeometry relative="1" as="geometry">
            <Array as="points">
              <mxPoint x="690" y="170" />
              <mxPoint x="690" y="450" />
              <mxPoint x="415" y="450" />
            </Array>
          </mxGeometry>
        </mxCell>
        <mxCell id="T6DNwft9aMQeRnURHnW7-55" style="edgeStyle=orthogonalEdgeStyle;rounded=0;orthogonalLoop=1;jettySize=auto;html=1;entryX=0;entryY=0.5;entryDx=0;entryDy=0;" edge="1" parent="1" source="T6DNwft9aMQeRnURHnW7-51" target="T6DNwft9aMQeRnURHnW7-54">
          <mxGeometry relative="1" as="geometry">
            <Array as="points">
              <mxPoint x="735" y="470" />
            </Array>
          </mxGeometry>
        </mxCell>
        <mxCell id="T6DNwft9aMQeRnURHnW7-56" value="&lt;b&gt;YES&lt;/b&gt;" style="edgeLabel;html=1;align=center;verticalAlign=middle;resizable=0;points=[];" vertex="1" connectable="0" parent="T6DNwft9aMQeRnURHnW7-55">
          <mxGeometry x="-0.5921" y="-1" relative="1" as="geometry">
            <mxPoint as="offset" />
          </mxGeometry>
        </mxCell>
        <mxCell id="T6DNwft9aMQeRnURHnW7-61" style="edgeStyle=orthogonalEdgeStyle;rounded=0;orthogonalLoop=1;jettySize=auto;html=1;entryX=0;entryY=0.5;entryDx=0;entryDy=0;" edge="1" parent="1" source="T6DNwft9aMQeRnURHnW7-57" target="T6DNwft9aMQeRnURHnW7-58">
          <mxGeometry relative="1" as="geometry" />
        </mxCell>
        <mxCell id="T6DNwft9aMQeRnURHnW7-62" value="&lt;b&gt;YES&lt;/b&gt;" style="edgeLabel;html=1;align=center;verticalAlign=middle;resizable=0;points=[];" vertex="1" connectable="0" parent="T6DNwft9aMQeRnURHnW7-61">
          <mxGeometry x="-0.2137" y="1" relative="1" as="geometry">
            <mxPoint as="offset" />
          </mxGeometry>
        </mxCell>
        <mxCell id="T6DNwft9aMQeRnURHnW7-64" style="edgeStyle=orthogonalEdgeStyle;rounded=0;orthogonalLoop=1;jettySize=auto;html=1;" edge="1" parent="1" source="T6DNwft9aMQeRnURHnW7-59" target="T6DNwft9aMQeRnURHnW7-63">
          <mxGeometry relative="1" as="geometry" />
        </mxCell>
        <mxCell id="T6DNwft9aMQeRnURHnW7-65" value="&lt;b&gt;YES&lt;/b&gt;" style="edgeLabel;html=1;align=center;verticalAlign=middle;resizable=0;points=[];" vertex="1" connectable="0" parent="T6DNwft9aMQeRnURHnW7-64">
          <mxGeometry x="-0.0876" relative="1" as="geometry">
            <mxPoint y="-48" as="offset" />
          </mxGeometry>
        </mxCell>
        <mxCell id="T6DNwft9aMQeRnURHnW7-67" style="edgeStyle=orthogonalEdgeStyle;rounded=0;orthogonalLoop=1;jettySize=auto;html=1;entryX=0;entryY=0.5;entryDx=0;entryDy=0;" edge="1" parent="1" source="T6DNwft9aMQeRnURHnW7-59" target="T6DNwft9aMQeRnURHnW7-66">
          <mxGeometry relative="1" as="geometry">
            <Array as="points">
              <mxPoint x="800" y="700" />
              <mxPoint x="870" y="700" />
              <mxPoint x="870" y="680" />
            </Array>
          </mxGeometry>
        </mxCell>
        <mxCell id="T6DNwft9aMQeRnURHnW7-68" value="&lt;b&gt;NO&lt;/b&gt;" style="edgeLabel;html=1;align=center;verticalAlign=middle;resizable=0;points=[];" vertex="1" connectable="0" parent="T6DNwft9aMQeRnURHnW7-67">
          <mxGeometry x="-0.3365" y="1" relative="1" as="geometry">
            <mxPoint as="offset" />
          </mxGeometry>
        </mxCell>
        <mxCell id="T6DNwft9aMQeRnURHnW7-74" style="edgeStyle=orthogonalEdgeStyle;rounded=0;orthogonalLoop=1;jettySize=auto;html=1;entryX=0;entryY=0.5;entryDx=0;entryDy=0;" edge="1" parent="1" source="T6DNwft9aMQeRnURHnW7-72" target="T6DNwft9aMQeRnURHnW7-73">
          <mxGeometry relative="1" as="geometry" />
        </mxCell>
        <mxCell id="T6DNwft9aMQeRnURHnW7-75" value="&lt;b&gt;YES&lt;/b&gt;" style="edgeLabel;html=1;align=center;verticalAlign=middle;resizable=0;points=[];" vertex="1" connectable="0" parent="T6DNwft9aMQeRnURHnW7-74">
          <mxGeometry x="-0.6005" y="-2" relative="1" as="geometry">
            <mxPoint y="-2" as="offset" />
          </mxGeometry>
        </mxCell>
        <mxCell id="T6DNwft9aMQeRnURHnW7-86" style="edgeStyle=orthogonalEdgeStyle;rounded=0;orthogonalLoop=1;jettySize=auto;html=1;entryX=1;entryY=0.5;entryDx=0;entryDy=0;" edge="1" parent="1" source="T6DNwft9aMQeRnURHnW7-83" target="T6DNwft9aMQeRnURHnW7-77">
          <mxGeometry relative="1" as="geometry" />
        </mxCell>
        <mxCell id="T6DNwft9aMQeRnURHnW7-83" value="" style="ellipse;whiteSpace=wrap;html=1;aspect=fixed;fillColor=#f8cecc;strokeColor=#b85450;" vertex="1" parent="1">
          <mxGeometry x="800" y="790" width="10" height="10" as="geometry" />
        </mxCell>
        <mxCell id="T6DNwft9aMQeRnURHnW7-84" style="edgeStyle=orthogonalEdgeStyle;rounded=0;orthogonalLoop=1;jettySize=auto;html=1;entryX=1;entryY=0.5;entryDx=0;entryDy=0;" edge="1" parent="1" source="T6DNwft9aMQeRnURHnW7-78" target="T6DNwft9aMQeRnURHnW7-83">
          <mxGeometry relative="1" as="geometry">
            <mxPoint x="1070" y="800" as="targetPoint" />
            <Array as="points">
              <mxPoint x="1080" y="515" />
              <mxPoint x="1080" y="795" />
            </Array>
          </mxGeometry>
        </mxCell>
        <mxCell id="T6DNwft9aMQeRnURHnW7-85" style="edgeStyle=orthogonalEdgeStyle;rounded=0;orthogonalLoop=1;jettySize=auto;html=1;entryX=0.5;entryY=0;entryDx=0;entryDy=0;" edge="1" parent="1" source="T6DNwft9aMQeRnURHnW7-73" target="T6DNwft9aMQeRnURHnW7-83">
          <mxGeometry relative="1" as="geometry">
            <Array as="points">
              <mxPoint x="970" y="770" />
              <mxPoint x="805" y="770" />
            </Array>
          </mxGeometry>
        </mxCell>
        <mxCell id="T6DNwft9aMQeRnURHnW7-90" style="edgeStyle=orthogonalEdgeStyle;rounded=0;orthogonalLoop=1;jettySize=auto;html=1;" edge="1" parent="1" source="T6DNwft9aMQeRnURHnW7-34" target="T6DNwft9aMQeRnURHnW7-77">
          <mxGeometry relative="1" as="geometry">
            <Array as="points">
              <mxPoint x="490" y="405" />
              <mxPoint x="490" y="730" />
              <mxPoint x="143" y="730" />
            </Array>
          </mxGeometry>
        </mxCell>
        <mxCell id="T6DNwft9aMQeRnURHnW7-95" style="edgeStyle=orthogonalEdgeStyle;rounded=0;orthogonalLoop=1;jettySize=auto;html=1;" edge="1" parent="1" source="T6DNwft9aMQeRnURHnW7-54" target="T6DNwft9aMQeRnURHnW7-57">
          <mxGeometry relative="1" as="geometry">
            <Array as="points">
              <mxPoint x="780" y="520" />
              <mxPoint x="150" y="520" />
            </Array>
          </mxGeometry>
        </mxCell>
        <mxCell id="T6DNwft9aMQeRnURHnW7-96" style="edgeStyle=orthogonalEdgeStyle;rounded=0;orthogonalLoop=1;jettySize=auto;html=1;" edge="1" parent="1" source="T6DNwft9aMQeRnURHnW7-54" target="T6DNwft9aMQeRnURHnW7-72">
          <mxGeometry relative="1" as="geometry">
            <Array as="points">
              <mxPoint x="820" y="490" />
              <mxPoint x="240" y="490" />
              <mxPoint x="240" y="610" />
              <mxPoint x="145" y="610" />
            </Array>
          </mxGeometry>
        </mxCell>
      </root>
    </mxGraphModel>
  </diagram>
</mxfile>
